<svg id="visual" viewBox="0 0 1920 1080" width="1920" height="1080" xmlns="http://www.w3.org/2000/svg" xmlns:xlink="http://www.w3.org/1999/xlink" version="1.1"><rect x="0" y="0" width="1920" height="1080" fill="#c7a2b6"></rect><path d="M0 678L160 653L320 762L480 687L640 742L800 677L960 646L1120 662L1280 674L1440 767L1600 779L1760 777L1920 624L1920 1081L1760 1081L1600 1081L1440 1081L1280 1081L1120 1081L960 1081L800 1081L640 1081L480 1081L320 1081L160 1081L0 1081Z" fill="#aa6489"></path><path d="M0 789L160 790L320 707L480 766L640 790L800 766L960 827L1120 687L1280 687L1440 825L1600 701L1760 732L1920 757L1920 1081L1760 1081L1600 1081L1440 1081L1280 1081L1120 1081L960 1081L800 1081L640 1081L480 1081L320 1081L160 1081L0 1081Z" fill="#a45b82"></path><path d="M0 758L160 767L320 803L480 856L640 860L800 762L960 820L1120 873L1280 885L1440 795L1600 822L1760 751L1920 819L1920 1081L1760 1081L1600 1081L1440 1081L1280 1081L1120 1081L960 1081L800 1081L640 1081L480 1081L320 1081L160 1081L0 1081Z" fill="#9f527b"></path><path d="M0 867L160 930L320 927L480 924L640 893L800 910L960 822L1120 834L1280 890L1440 924L1600 942L1760 850L1920 838L1920 1081L1760 1081L1600 1081L1440 1081L1280 1081L1120 1081L960 1081L800 1081L640 1081L480 1081L320 1081L160 1081L0 1081Z" fill="#994a74"></path><path d="M0 911L160 957L320 887L480 943L640 950L800 978L960 988L1120 948L1280 905L1440 983L1600 992L1760 891L1920 955L1920 1081L1760 1081L1600 1081L1440 1081L1280 1081L1120 1081L960 1081L800 1081L640 1081L480 1081L320 1081L160 1081L0 1081Z" fill="#93416d"></path><path d="M0 964L160 961L320 1008L480 993L640 1013L800 1037L960 958L1120 975L1280 999L1440 981L1600 1029L1760 957L1920 1018L1920 1081L1760 1081L1600 1081L1440 1081L1280 1081L1120 1081L960 1081L800 1081L640 1081L480 1081L320 1081L160 1081L0 1081Z" fill="#8d3866"></path></svg>